<?xml version="1.0" encoding="UTF-8" standalone="no"?>
<svg width="16px" height="16px" viewBox="0 0 16 16" version="1.1" xmlns="http://www.w3.org/2000/svg" xmlns:xlink="http://www.w3.org/1999/xlink">
    <!-- Generator: Sketch 40.3 (33839) - http://www.bohemiancoding.com/sketch -->
    <title>leaderboard_exclude_include_ic</title>
    <desc>Created with Sketch.</desc>
    <defs></defs>
    <g id="svg" stroke="none" stroke-width="1" fill="none" fill-rule="evenodd">
        <g id="leaderboard_exclude_include_ic" fill="#000000">
            <path d="M6.29777778,11.1866667 L7.55555556,12.4444444 L12,8 L7.55555556,3.55555556 L6.29777778,4.81333333 L8.59555556,7.11111111 L0,7.11111111 L0,8.88888889 L8.59555556,8.88888889 L6.29777778,11.1866667 Z M14.2222222,0 L1.77777778,0 C0.795555556,0 0,0.795555556 0,1.77777778 L0,5.33333333 L1.77777778,5.33333333 L1.77777778,1.77777778 L14.2222222,1.77777778 L14.2222222,14.2222222 L1.77777778,14.2222222 L1.77777778,10.6666667 L0,10.6666667 L0,14.2222222 C0,15.2044444 0.795555556,16 1.77777778,16 L14.2222222,16 C15.2044444,16 16,15.2044444 16,14.2222222 L16,1.77777778 C16,0.795555556 15.2044444,0 14.2222222,0 L14.2222222,0 Z" id="Page-1" transform="translate(8.000000, 8.000000) rotate(-90.000000) translate(-8.000000, -8.000000) "></path>
        </g>
    </g>
</svg>