<?xml version="1.0" encoding="UTF-8" standalone="no"?>
<svg width="24px" height="24px" viewBox="0 0 24 24" version="1.1" xmlns="http://www.w3.org/2000/svg" xmlns:xlink="http://www.w3.org/1999/xlink">
    <!-- Generator: Sketch 40.3 (33839) - http://www.bohemiancoding.com/sketch -->
    <title>analytics_ic</title>
    <desc>Created with Sketch.</desc>
    <defs>
        <polygon id="path-1" points="23.9998831 0 0 0 0 23.9999 23.9998831 23.9999 23.9998831 0"></polygon>
    </defs>
    <g id="svg" stroke="none" stroke-width="1" fill="none" fill-rule="evenodd">
        <g id="analytics_ic">
            <mask id="mask-2" fill="white">
                <use xlink:href="#path-1"></use>
            </mask>
            <g id="Clip-2"></g>
            <path d="M22.4372571,6.1008 C22.4228571,6.0672 22.4112,6.03291429 22.392,6 C22.3618286,5.94788571 22.3261714,5.90125714 22.2891429,5.85668571 C21.2688,4.15474286 19.8432,2.72982857 18.1419429,1.71017143 C18.0980571,1.67314286 18.0514286,1.63748571 18,1.608 C17.9670857,1.5888 17.9328,1.57714286 17.8985143,1.56205714 C16.1547429,0.572571429 14.1442286,0 12,0 C9.85508571,0 7.84457143,0.572571429 6.1008,1.56274286 C6.0672,1.57714286 6.03222857,1.5888 6,1.608 C5.94857143,1.63748571 5.90194286,1.67314286 5.85805714,1.71017143 C4.15611429,2.72982857 2.73051429,4.15542857 1.71017143,5.85737143 C1.67314286,5.90194286 1.63748571,5.94788571 1.608,6 C1.5888,6.03291429 1.57714286,6.0672 1.56274286,6.1008 C0.572571429,7.84525714 0,9.85577143 0,12 C0,18.6164571 5.38354286,24 12,24 C18.6164571,24 24,18.6164571 24,12 C24,9.85577143 23.4274286,7.84525714 22.4372571,6.1008 M12,21.9428571 C6.86468571,21.9428571 2.62697143,18.0294857 2.11062857,13.0285714 L3.18994286,13.0285714 C3.75771429,13.0285714 4.21851429,12.5677714 4.21851429,12 C4.21851429,11.4322286 3.75771429,10.9714286 3.18994286,10.9714286 L2.11062857,10.9714286 C2.22102857,9.90445714 2.50697143,8.89028571 2.928,7.95017143 L3.85577143,8.48571429 C4.0176,8.57965714 4.19451429,8.62354286 4.36937143,8.62354286 C4.72457143,8.62354286 5.07017143,8.43977143 5.2608,8.10925714 C5.54468571,7.61691429 5.376,6.98811429 4.88434286,6.70422857 L3.96205714,6.17142857 C4.57851429,5.32388571 5.32388571,4.57851429 6.17142857,3.96205714 L6.70354286,4.88434286 C6.89417143,5.21417143 7.24045714,5.39862857 7.59565714,5.39862857 C7.77051429,5.39862857 7.94674286,5.35474286 8.10925714,5.2608 C8.60091429,4.97691429 8.7696,4.34811429 8.48571429,3.85577143 L7.95017143,2.928 C8.89097143,2.50628571 9.90445714,2.22102857 10.9714286,2.11062857 L10.9714286,3.18925714 C10.9714286,3.75702857 11.4315429,4.21782857 12,4.21782857 C12.5684571,4.21782857 13.0285714,3.75702857 13.0285714,3.18925714 L13.0285714,2.11062857 C14.0955429,2.22102857 15.1090286,2.50628571 16.0498286,2.928 L15.5142857,3.85577143 C15.2304,4.34811429 15.3990857,4.97691429 15.8907429,5.2608 C16.0532571,5.35474286 16.2294857,5.39862857 16.4043429,5.39862857 C16.7595429,5.39862857 17.1058286,5.21417143 17.2964571,4.88434286 L17.8285714,3.96205714 C18.6761143,4.57851429 19.4214857,5.32388571 20.0379429,6.17142857 L19.1156571,6.70422857 C18.624,6.98811429 18.4553143,7.61691429 18.7392,8.10925714 C18.9298286,8.43977143 19.2754286,8.62354286 19.6306286,8.62354286 C19.8054857,8.62354286 19.9824,8.57965714 20.1442286,8.48571429 L21.072,7.95017143 C21.4930286,8.89028571 21.7789714,9.90445714 21.8893714,10.9714286 L20.8100571,10.9714286 C20.2422857,10.9714286 19.7814857,11.4322286 19.7814857,12 C19.7814857,12.5677714 20.2422857,13.0285714 20.8100571,13.0285714 L21.8893714,13.0285714 C21.3730286,18.0294857 17.1353143,21.9428571 12,21.9428571" id="Fill-1" fill="#000000" mask="url(#mask-2)"></path>
            <path d="M14.8317254,12.1580181 C14.4292125,10.869769 13.3610052,9.189153 12.8380076,8.41580181 C12.4624187,7.8613994 11.5375813,7.8613994 11.1619924,8.41580181 C10.6437065,9.18312688 9.58761499,10.8436558 9.177698,12.1272179 C9.14269688,12.235688 9.10163787,12.3408102 9.07875252,12.4546368 C9.03028943,12.6568463 9,12.8470037 9,13.0157349 C9,14.6615333 10.3455239,16 12,16 C13.6544761,16 15,14.6615333 15,13.0157349 C15,12.8470037 14.9697106,12.6555072 14.9212475,12.4519585 C14.9003814,12.3508537 14.8626879,12.2551055 14.8317254,12.1580181 M12,13.9912956 C11.9340363,13.9912956 11.8694189,13.9839304 11.8068207,13.9718781 C11.3693067,13.8828256 11.0388153,13.4964848 11.0388153,13.0344828 C11.0388153,12.5075326 11.4702715,12.0796786 12,12.0796786 C12.5297285,12.0796786 12.9611847,12.5075326 12.9611847,13.0344828 C12.9611847,13.4964848 12.6306933,13.8828256 12.1931793,13.9718781 C12.1305811,13.9839304 12.0659637,13.9912956 12,13.9912956" id="Fill-2" fill="#000000" mask="url(#mask-2)"></path>
        </g>
    </g>
</svg>