<?xml version="1.0" encoding="UTF-8" standalone="no"?>
<svg width="80px" height="68px" viewBox="0 0 80 68" version="1.1" xmlns="http://www.w3.org/2000/svg" xmlns:xlink="http://www.w3.org/1999/xlink">
    <!-- Generator: Sketch 40.3 (33839) - http://www.bohemiancoding.com/sketch -->
    <title>avg_users_per_day_ic</title>
    <desc>Created with Sketch.</desc>
    <defs></defs>
    <g id="svg" stroke="none" stroke-width="1" fill="none" fill-rule="evenodd">
        <g id="avg_users_per_day_ic">
            <g id="Group">
                <path d="M72.2054,8.6418 L72.2054,2.4648 C72.2054,1.1028 70.9294,-0.0002 69.3544,-0.0002 C67.7794,-0.0002 66.5034,1.1028 66.5034,2.4648 L66.5034,8.6458 L13.2544,8.6458 L13.2544,2.4648 C13.2544,1.1028 11.9794,-0.0002 10.4034,-0.0002 C8.8284,-0.0002 7.5564,1.1028 7.5564,2.4648 L7.5564,8.6458 L0.0004,8.6458 L0.0004,61.1848 C0.0004,64.8128 3.4034,67.7558 7.5984,67.7558 L72.2014,67.7558 C76.3994,67.7558 79.7994,64.8128 79.7994,61.1848 L79.7994,8.6418 L72.2054,8.6418 Z M72.2054,61.1888 L7.5984,61.1888 L7.5984,21.7788 L72.2014,21.7788 L72.2014,61.1888 L72.2054,61.1888 Z" id="Fill-1" fill="#EE7B83"></path>
                <path d="M66.503,2.4644 L66.503,8.6454 L13.255,8.6454 L13.255,2.4644 C13.255,1.1024 11.979,0.0004 10.404,0.0004 C8.829,0.0004 7.557,1.1024 7.557,2.4644 L7.557,8.6454 L0,8.6454 L0,61.1854 C0,64.8124 3.404,67.7554 7.598,67.7554 L72.201,67.7554 C76.4,67.7554 79.8,64.8124 79.8,61.1854 L79.8,8.6424 L72.206,8.6424 L72.206,2.4644 C72.206,1.1024 70.929,0.0004 69.354,0.0004 C67.779,0.0004 66.503,1.1024 66.503,2.4644 L66.503,2.4644 Z M7.598,21.7784 L72.201,21.7784 L72.201,61.1884 L72.206,61.1884 L7.598,61.1884 L7.598,21.7784 L7.598,21.7784 Z" id="Clip-4"></path>
                <path d="M15.3287,35.6212 C15.4947,35.6212 15.6867,35.6002 15.9067,35.5572 C16.1227,35.5132 16.5137,35.4212 17.0837,35.2762 L20.7407,34.3682 L20.7407,55.1362 C20.7407,56.1462 21.3557,56.6522 22.5937,56.6522 L29.2027,56.6522 L29.2027,28.1792 C29.2027,27.7442 29.0367,27.3852 28.7047,27.0982 C28.3677,26.8102 27.9527,26.6672 27.4537,26.6672 C26.9507,26.6672 26.2857,26.7382 25.4497,26.8822 C24.6147,27.0262 23.6797,27.2272 22.6437,27.4892 C21.6097,27.7482 20.5327,28.0462 19.4147,28.3762 C18.2967,28.7072 17.2207,29.0622 16.1857,29.4362 L14.1317,30.1722 L14.1317,34.6732 C14.1317,35.0182 14.2487,35.2662 14.4807,35.4092 C14.7137,35.5492 14.9967,35.6212 15.3287,35.6212" id="Fill-9" fill="#EE7B83"></path>
                <path d="M25.45,26.8814 C24.615,27.0264 23.679,27.2274 22.644,27.4894 C21.609,27.7484 20.533,28.0464 19.414,28.3764 C18.296,28.7064 17.221,29.0624 16.185,29.4364 L14.131,30.1724 L14.131,34.6724 C14.131,35.0174 14.248,35.2654 14.48,35.4094 C14.714,35.5494 14.997,35.6214 15.328,35.6214 C15.495,35.6214 15.686,35.5994 15.906,35.5564 C16.122,35.5134 16.514,35.4204 17.083,35.2764 L20.741,34.3674 L20.741,55.1364 C20.741,56.1464 21.356,56.6514 22.594,56.6514 L29.203,56.6514 L29.203,28.1794 C29.203,27.7444 29.037,27.3844 28.705,27.0974 C28.368,26.8104 27.953,26.6664 27.454,26.6664 C26.95,26.6664 26.285,26.7384 25.45,26.8814 L25.45,26.8814 Z" id="Clip-12"></path>
                <path d="M40.3137,56.6483 L59.8397,56.6483 L59.8397,52.1053 C59.8397,51.0953 59.2207,50.5893 57.9867,50.5893 L47.7247,50.5893 C47.8947,49.9243 48.1767,49.3213 48.5757,48.7713 C48.9747,48.2253 49.4617,47.7053 50.0277,47.2133 C50.5967,46.7213 51.2117,46.2533 51.8767,45.8043 C52.5457,45.3593 53.2107,44.9033 53.8807,44.4393 C54.6487,43.9223 55.3967,43.3583 56.1327,42.7513 C56.8687,42.1443 57.5177,41.4733 58.0867,40.7403 C58.6557,40.0073 59.1137,39.1773 59.4627,38.2513 C59.8117,37.3283 59.9897,36.2613 59.9897,35.0503 C59.9897,32.4253 59.0547,30.3693 57.1847,28.8823 C55.3137,27.3993 52.3627,26.6553 48.3227,26.6553 C46.2867,26.6553 44.4327,26.8213 42.7657,27.1513 C41.0947,27.4823 39.8277,27.8233 38.9577,28.1683 L38.9577,31.5263 C38.9577,32.5473 39.5897,33.0563 40.8617,33.0563 L42.8907,33.0563 L46.2687,33.0563 C47.9737,33.0563 49.2667,33.2073 50.1517,33.5093 C51.0327,33.8113 51.4777,34.5653 51.4777,35.7723 C51.4777,36.2613 51.4037,36.6993 51.2527,37.0873 C51.1027,37.4753 50.8367,37.8763 50.4507,38.2943 C50.0687,38.7113 49.5407,39.1703 48.8757,39.6733 C48.2067,40.1753 47.3587,40.7863 46.3237,41.5053 C45.4227,42.1373 44.5027,42.8133 43.5677,43.5313 C42.6327,44.2493 41.7887,45.0683 41.0407,45.9883 C40.2877,46.9073 39.6727,47.9493 39.1867,49.1123 C38.7007,50.2763 38.4597,51.6053 38.4597,53.0993 L38.4597,55.1253 C38.4637,56.1463 39.0797,56.6483 40.3137,56.6483" id="Fill-15" fill="#EE7B83"></path>
                <path d="M42.766,27.1514 C41.094,27.4824 39.827,27.8234 38.958,28.1684 L38.958,31.5264 C38.958,32.5474 39.59,33.0564 40.861,33.0564 L42.891,33.0564 L46.269,33.0564 C47.974,33.0564 49.266,33.2074 50.152,33.5094 C51.033,33.8114 51.478,34.5654 51.478,35.7714 C51.478,36.2614 51.403,36.6984 51.254,37.0864 C51.103,37.4744 50.837,37.8764 50.451,38.2944 C50.069,38.7114 49.541,39.1714 48.876,39.6734 C48.207,40.1754 47.358,40.7864 46.323,41.5054 C45.423,42.1374 44.503,42.8134 43.568,43.5304 C42.633,44.2484 41.788,45.0684 41.04,45.9874 C40.288,46.9074 39.673,47.9494 39.187,49.1124 C38.7,50.2774 38.46,51.6054 38.46,53.0994 L38.46,55.1254 C38.464,56.1464 39.079,56.6484 40.314,56.6484 L59.84,56.6484 L59.84,52.1054 C59.84,51.0954 59.22,50.5894 57.986,50.5894 L47.725,50.5894 C47.895,49.9244 48.177,49.3214 48.576,48.7714 C48.975,48.2254 49.462,47.7044 50.028,47.2124 C50.597,46.7214 51.211,46.2544 51.876,45.8044 C52.546,45.3594 53.211,44.9034 53.881,44.4394 C54.648,43.9234 55.396,43.3574 56.133,42.7514 C56.868,42.1444 57.518,41.4734 58.086,40.7404 C58.656,40.0074 59.113,39.1774 59.463,38.2514 C59.812,37.3274 59.99,36.2614 59.99,35.0494 C59.99,32.4244 59.055,30.3704 57.185,28.8834 C55.314,27.4004 52.363,26.6554 48.323,26.6554 C46.286,26.6554 44.432,26.8214 42.766,27.1514 L42.766,27.1514 Z" id="Clip-18"></path>
            </g>
        </g>
    </g>
</svg>