<?xml version="1.0" encoding="UTF-8" standalone="no"?>
<svg width="24px" height="24px" viewBox="0 0 24 24" version="1.1" xmlns="http://www.w3.org/2000/svg" xmlns:xlink="http://www.w3.org/1999/xlink">
    <!-- Generator: Sketch 40.3 (33839) - http://www.bohemiancoding.com/sketch -->
    <title>leaderboard_ic</title>
    <desc>Created with Sketch.</desc>
    <defs>
        <polygon id="path-1" points="23.9998831 0 0 0 0 23.9999 23.9998831 23.9999 23.9998831 0"></polygon>
    </defs>
    <g id="svg" stroke="none" stroke-width="1" fill="none" fill-rule="evenodd">
        <g id="leaderboard_ic">
            <mask id="mask-2" fill="white">
                <use xlink:href="#path-1"></use>
            </mask>
            <g id="Clip-2"></g>
            <path d="M10.2048,7.5329 L9.8908,9.3199 C9.8698,9.4389 9.9208,9.5589 10.0188,9.6319 C10.0758,9.6709 10.1408,9.6909 10.2078,9.6909 C10.2588,9.6909 10.3128,9.6769 10.3608,9.6549 L12.0018,8.8109 L13.6408,9.6549 C13.7488,9.7099 13.8798,9.7009 13.9808,9.6319 C14.0818,9.5619 14.1298,9.4389 14.1098,9.3199 L13.7948,7.5329 L15.1188,6.2689 C15.2078,6.1819 15.2408,6.0569 15.2008,5.9409 C15.1628,5.8249 15.0618,5.7429 14.9378,5.7259 L13.1058,5.4679 L12.2888,3.8429 C12.2348,3.7339 12.1198,3.6639 11.9978,3.6639 C11.8768,3.6639 11.7618,3.7339 11.7078,3.8399 L10.8868,5.4679 L9.0568,5.7259 C8.9348,5.7429 8.8338,5.8279 8.7928,5.9409 C8.7558,6.0569 8.7858,6.1819 8.8738,6.2689 L10.2048,7.5329 Z M23.0338,2.1749 L19.6018,2.1749 L19.6018,0.9529 C19.6018,0.4269 19.1658,-0.0001 18.6288,-0.0001 L5.3778,-0.0001 C4.8408,-0.0001 4.4048,0.4269 4.4048,0.9529 L4.4048,2.1749 L0.9728,2.1749 C0.4358,2.1749 -0.0002,2.6019 -0.0002,3.1279 C-0.0002,5.7259 1.9318,7.8869 4.4618,8.3139 C4.7898,11.0609 6.6508,13.3509 9.1778,14.3509 L9.1778,19.0059 L8.8738,19.0059 C8.6168,19.0059 8.3708,19.1049 8.1878,19.2829 C7.1478,20.2929 6.5768,21.6299 6.5768,23.0469 C6.5768,23.5729 7.0118,23.9999 7.5498,23.9999 L16.4508,23.9999 C16.9878,23.9999 17.4238,23.5729 17.4238,23.0469 C17.4238,21.6269 16.8518,20.2899 15.8118,19.2829 C15.6288,19.1079 15.3828,19.0059 15.1258,19.0059 L14.8228,19.0059 L14.8228,14.3539 C17.3528,13.3579 19.2098,11.0639 19.5378,8.3179 C22.0678,7.8909 23.9998,5.7289 23.9998,3.1319 C24.0068,2.6019 23.5708,2.1749 23.0338,2.1749 L23.0338,2.1749 Z M4.4048,6.3539 C3.2938,6.0309 2.4148,5.1699 2.0838,4.0809 L4.4048,4.0809 L4.4048,6.3539 Z M15.3388,22.0969 L8.6648,22.0969 C8.7928,21.6699 9.0088,21.2689 9.3028,20.9149 L14.7008,20.9149 C14.9948,21.2689 15.2108,21.6699 15.3388,22.0969 L15.3388,22.0969 Z M11.1228,19.0089 L11.1228,14.8339 C11.4098,14.8669 11.7038,14.8909 12.0018,14.8909 C12.2988,14.8909 12.5928,14.8669 12.8808,14.8339 L12.8808,19.0089 L11.1228,19.0089 Z M17.6528,7.4469 C17.6528,10.5019 15.1168,12.9839 12.0018,12.9839 C8.8848,12.9839 6.3508,10.5019 6.3508,7.4469 L6.3508,1.9099 L17.6558,1.9099 L17.6558,7.4469 L17.6528,7.4469 Z M19.5988,6.3539 L19.5988,4.0809 L21.9198,4.0809 C21.5918,5.1729 20.7128,6.0339 19.5988,6.3539 L19.5988,6.3539 Z" id="Fill-1" fill="#000000" mask="url(#mask-2)"></path>
        </g>
    </g>
</svg>