<?xml version="1.0" encoding="UTF-8" standalone="no"?>
<svg width="24px" height="24px" viewBox="0 0 24 24" version="1.1" xmlns="http://www.w3.org/2000/svg" xmlns:xlink="http://www.w3.org/1999/xlink">
    <!-- Generator: Sketch 40.3 (33839) - http://www.bohemiancoding.com/sketch -->
    <title>leaderboard_score_star_ic</title>
    <desc>Created with Sketch.</desc>
    <defs></defs>
    <g id="svg" stroke="none" stroke-width="1" fill="none" fill-rule="evenodd">
        <g id="leaderboard_score_star_ic" fill="#000000">
            <path d="M18.2991326,24 C17.9182147,24 17.5400067,23.8736247 17.2210267,23.627738 L12.0043103,19.6091652 L6.78565829,23.627738 C6.46512986,23.8736247 6.08576045,24 5.70755239,24 C5.33398966,24 4.96042693,23.8784698 4.64144694,23.6354093 C4.00039007,23.1513072 3.73405726,22.2900979 3.98529271,21.5064096 L6.03582305,15.0871101 L0.759878559,11.1521147 C0.115724796,10.6712426 -0.154866238,9.81164833 0.0882398694,9.02634501 C0.331733089,8.24548299 1.02892115,7.71858282 1.81514488,7.71858282 L1.82753245,7.71858282 L8.31436215,7.77228222 L10.2712115,1.32189361 C10.5085109,0.534571515 11.2103443,0 12.0012134,0 C12.7920824,0 13.4935287,0.536186535 13.7296668,1.32189361 L15.686129,7.77228222 L22.170249,7.71858282 L22.1868948,7.71858282 C22.9704087,7.71858282 23.671855,8.24548299 23.9095415,9.02634501 C24.1557445,9.81326335 23.8882504,10.6696275 23.2425482,11.1521147 L17.9697006,15.0871101 L20.0233278,21.5064096 C20.2710793,22.2884829 20.0051336,23.1496921 19.3683349,23.6354093 C19.0509034,23.8768547 18.6742438,24 18.2991326,24" id="Page-1"></path>
        </g>
    </g>
</svg>