<?xml version="1.0" encoding="UTF-8" standalone="no"?>
<svg width="24px" height="24px" viewBox="0 0 24 24" version="1.1" xmlns="http://www.w3.org/2000/svg" xmlns:xlink="http://www.w3.org/1999/xlink">
    <!-- Generator: Sketch 40.3 (33839) - http://www.bohemiancoding.com/sketch -->
    <title>like_ic</title>
    <desc>Created with Sketch.</desc>
    <defs></defs>
    <g id="svg" stroke="none" stroke-width="1" fill="none" fill-rule="evenodd">
        <g id="like_ic" fill="#000000">
            <path d="M17.161546,6.85270373 L17.161546,2.74181264 C17.161546,1.22833206 16.0343839,0 14.6455592,0 L12.396267,0 C11.4741578,0 10.6258509,0.549733435 10.1851339,1.43351104 L7.38232462,7.05285605 C7.09424413,6.92581874 6.77974578,6.85453161 6.44721619,6.85453161 L2.5159868,6.85453161 C1.12716209,6.85453161 0,8.08286367 0,9.59634425 L0,21.2581874 C0,22.7716679 1.12716209,24 2.5159868,24 L6.44721619,24 C7.56431433,24 8.5094867,23.2053313 8.83866164,22.1076923 L12.774923,23.8071592 C13.0697128,23.9337395 13.3842111,24 13.7003868,24 L21.4840113,24 C22.8732554,24 23.9999981,22.7716679 23.9999981,21.2581874 L23.9999981,9.59451637 C24.0016755,8.0810358 22.8749327,6.85270373 21.4856886,6.85270373 L17.161546,6.85270373 Z M2.5159868,21.2581874 L2.5159868,9.59634425 L6.4258303,9.59634425 C6.4258303,9.62467631 6.42079833,9.65163747 6.42079833,9.6804265 L6.42079833,19.2031988 C6.42079833,19.3302361 6.4325396,19.4568165 6.44721619,19.580198 L6.44721619,21.2595583 L2.5159868,21.2595583 L2.5159868,21.2581874 Z M21.4856886,21.2581874 L13.7020641,21.2581874 L8.96320299,19.2123382 L8.96320299,9.62650419 L12.396267,2.74181264 L14.6455592,2.74181264 L14.6455592,9.59451637 L21.4856886,9.59451637 L21.4856886,21.2581874 Z" id="Fill-1"></path>
            <path d="M5.72871698,18.1990189 C5.72871698,19.8593962 3.23815094,19.8593962 3.23815094,18.1990189 C3.23815094,16.5386415 5.72871698,16.5386415 5.72871698,18.1990189" id="Fill-2"></path>
        </g>
    </g>
</svg>