<?xml version="1.0" encoding="UTF-8" standalone="no"?>
<svg width="24px" height="24px" viewBox="0 0 24 24" version="1.1" xmlns="http://www.w3.org/2000/svg" xmlns:xlink="http://www.w3.org/1999/xlink">
    <!-- Generator: Sketch 40.3 (33839) - http://www.bohemiancoding.com/sketch -->
    <title>notifications_ic</title>
    <desc>Created with Sketch.</desc>
    <defs></defs>
    <g id="svg" stroke="none" stroke-width="1" fill="none" fill-rule="evenodd">
        <g id="notifications_ic" fill="#000000">
            <g id="Group" transform="translate(0.000000, 4.000000)">
                <path d="M9.22543501,10.8684032 L9.13271204,4.31477022 L13.3318792,2.82731644 L13.4650452,12.1604753 L9.22543501,10.8684032 Z M8.44814027,14.4854196 C7.83459036,14.4972014 7.29304872,13.9778198 7.28417098,13.3671292 L7.26838835,12.2056389 L8.3623222,12.1909117 L9.57955787,12.5610569 L9.58942202,13.309202 C9.59829975,13.944438 9.08635055,14.4716741 8.44814027,14.4854196 L8.44814027,14.4854196 Z M4.62874275,10.7250579 C2.89659863,10.7604033 1.54718339,9.378004 1.52350943,7.74033211 C1.49983548,6.05553297 2.85911487,4.65546096 4.55278882,4.61913371 L7.61363348,4.55531556 L7.70043797,10.6838215 L4.62874275,10.7250579 Z M14.8391208,1.74829881 C14.8322159,1.22891726 14.3143482,0.870553803 13.8221273,1.04433553 L8.22422414,3.02662543 L4.51925072,3.10418903 C1.99106998,3.15622536 -0.0360121254,5.24553339 0.000485216625,7.76095028 C0.035996144,10.3392035 2.17947518,12.2900752 4.65340312,12.2400025 L5.74437772,12.2252753 L5.76114677,13.3867656 C5.78186147,14.8594921 7.00008357,16.0308006 8.47871912,15.9993824 C9.95143619,15.9699279 11.1321745,14.752474 11.1114598,13.2866202 L11.1075142,13.0264385 L14.016451,13.9130199 C14.5155768,14.0661834 15.0077977,13.6842563 14.9999064,13.1776384 L14.8391208,1.74829881 Z" id="Fill-1"></path>
                <path d="M18.4412914,2.22152072 L18.4401898,2.22050164 C18.1031028,1.91885235 17.5633231,1.92802411 17.2383536,2.23986426 C16.9122826,2.55170441 16.9221969,3.05105628 17.2592838,3.35270557 L17.2603854,3.35270557 C18.5492473,4.50427213 19.2729928,6.05532018 19.2983294,7.71846763 C19.3247676,9.38467234 18.6461873,10.9642548 17.3892716,12.1667756 C17.0643022,12.4786158 17.0720133,12.9769485 17.4102019,13.2796169 C17.749492,13.5812662 18.2870686,13.5720944 18.6131396,13.2592352 C20.1829073,11.7560842 21.030031,9.78007749 20.9991864,7.69604775 C20.9672403,5.60997984 20.0584274,3.6655648 18.4412914,2.22152072" id="Fill-1"></path>
                <path d="M20.4732335,0.215572653 C20.128509,-0.0788353761 19.5776257,-0.0708784024 19.2441667,0.234470466 C18.9107077,0.538824713 18.9197201,1.02618936 19.2655712,1.31960276 C23.1837143,4.66053713 23.2704587,10.2145048 19.4604644,13.6986647 C19.1270054,14.0040136 19.1348913,14.489389 19.4818689,14.7847916 C19.8277199,15.0791997 20.3774767,15.0702481 20.7109357,14.7658938 C25.1878479,10.6720308 25.0808256,4.14432845 20.4732335,0.215572653" id="Fill-1"></path>
            </g>
        </g>
    </g>
</svg>