<?xml version="1.0" encoding="UTF-8" standalone="no"?>
<svg width="100px" height="68px" viewBox="0 0 100 68" version="1.1" xmlns="http://www.w3.org/2000/svg" xmlns:xlink="http://www.w3.org/1999/xlink">
    <!-- Generator: Sketch 40.3 (33839) - http://www.bohemiancoding.com/sketch -->
    <title>total_fb_users_ic</title>
    <desc>Created with Sketch.</desc>
    <defs></defs>
    <g id="svg" stroke="none" stroke-width="1" fill="none" fill-rule="evenodd">
        <g id="total_fb_users_ic" fill="#63B4E6">
            <g id="Group">
                <path d="M65.7681926,36.4984963 C34.5876741,36.4984963 31.8021926,67.3213852 31.8021926,67.3213852 L99.7404889,67.3213852 C99.7404889,67.3213852 96.9487111,36.4984963 65.7681926,36.4984963" id="Fill-1"></path>
                <path d="M65.7681926,27.2742963 C74.4835259,27.2742963 81.5517481,21.1643704 81.5517481,13.634 C81.5517481,6.10362963 74.4835259,0 65.7681926,0 C57.0541185,0 49.9909333,6.10362963 49.9909333,13.634 C49.9909333,21.1643704 57.0541185,27.2742963 65.7681926,27.2742963" id="Fill-4"></path>
                <path d="M34.3101556,48.7585185 C31.3647481,47.2486667 27.7179333,46.2891111 23.1783037,46.2891111 C1.9006,46.2891111 0.000377777778,67.3212593 0.000377777778,67.3212593 L27.7053407,67.3212593 L27.7343037,66.9825185 C27.7708222,66.6274074 28.5729704,58.2948889 33.5797852,49.8981481 C33.8114889,49.5077778 34.0671185,49.1388148 34.3101556,48.7585185" id="Fill-6"></path>
                <path d="M24.9198593,38.4856074 C30.8660815,38.4856074 35.6890444,34.3224963 35.6890444,29.1834593 C35.6890444,24.0456815 30.8660815,19.8762741 24.9198593,19.8762741 C18.973637,19.8762741 14.1557111,24.0456815 14.1557111,29.1834593 C14.1557111,34.3224963 18.973637,38.4856074 24.9198593,38.4856074" id="Fill-8"></path>
            </g>
        </g>
    </g>
</svg>