<?xml version="1.0" encoding="UTF-8" standalone="no"?>
<svg width="80px" height="68px" viewBox="0 0 80 68" version="1.1" xmlns="http://www.w3.org/2000/svg" xmlns:xlink="http://www.w3.org/1999/xlink">
    <!-- Generator: Sketch 40.3 (33839) - http://www.bohemiancoding.com/sketch -->
    <title>total_shares_ic</title>
    <desc>Created with Sketch.</desc>
    <defs></defs>
    <g id="svg" stroke="none" stroke-width="1" fill="none" fill-rule="evenodd">
        <g id="total_shares_ic" fill="#AD70C4">
            <path d="M65.6421407,44.1389403 C61.9218629,44.1389403 58.5466788,45.322846 55.9921442,47.247858 L28.5389633,35.6185482 C28.6483833,35.0265954 28.7199271,34.4206594 28.7199271,33.8019055 C28.7199271,33.4511618 28.6932735,33.1097402 28.6539945,32.7683186 L56.3765168,21.0341353 C58.8805499,22.7913496 62.108438,23.8563987 65.6421407,23.8563987 C73.5722803,23.8563987 80,18.5171705 80,11.9311125 C80,5.34388923 73.5722803,0 65.6421407,0 C57.7134039,0 51.2800729,5.33922819 51.2800729,11.9311125 C51.2800729,12.2946741 51.3081293,12.6547399 51.3460055,13.0089794 L23.6669706,24.7303448 C21.1629375,22.9544863 17.9140072,21.8766194 14.3634706,21.8766194 C6.433331,21.8766194 0,27.2158476 0,33.8065666 C0,40.3926246 6.433331,45.7365138 14.3634706,45.7365138 C17.5633022,45.7365138 20.5064179,44.8579066 22.8898085,43.3885119 L51.3123378,55.4279937 C51.3025181,55.6412365 51.2744617,55.8509836 51.2744617,56.0688875 C51.2744617,62.6561108 57.7021814,68 65.6365294,68 C73.566669,68 79.9943887,62.6607718 79.9943887,56.0688875 C80,49.4781685 73.5722803,44.1389403 65.6421407,44.1389403 L65.6421407,44.1389403 Z" id="Page-1"></path>
        </g>
    </g>
</svg>